<svg width="40" height="40" viewBox="0 0 40 40" fill="none" xmlns="http://www.w3.org/2000/svg">
<g id="Election Campaign 1" clip-path="url(#clip0_553_704)">
<path id="Vector" d="M24.5833 17.6565L19.25 12.0999C18.7834 11.6313 18.4759 11.0278 18.3712 10.3748C18.2665 9.72185 18.3699 9.05249 18.6667 8.46152C18.8898 8.01478 19.216 7.62751 19.6183 7.33164C20.0206 7.03577 20.4875 6.83978 20.9804 6.75985C21.4734 6.67992 21.9782 6.71833 22.4534 6.87192C22.9286 7.0255 23.3604 7.28986 23.7133 7.64319L24.5833 8.51152L25.4533 7.64319C25.8062 7.28986 26.2381 7.0255 26.7133 6.87192C27.1884 6.71833 27.6933 6.67992 28.1863 6.75985C28.6792 6.83978 29.1461 7.03577 29.5484 7.33164C29.9506 7.62751 30.2768 8.01478 30.5 8.46152C30.7959 9.05316 30.8982 9.72293 30.7923 10.3759C30.6864 11.0289 30.3777 11.632 29.91 12.0999L24.5833 17.6565Z" stroke="#96B300" stroke-width="1.5" stroke-linecap="round" stroke-linejoin="round"/>
<path id="Vector_2" d="M7.75833 35.4182L5.96667 36.2666C5.17478 36.6423 4.26606 36.6881 3.44043 36.3938C2.6148 36.0995 1.93989 35.4893 1.56417 34.6974C1.18844 33.9055 1.14269 32.9968 1.43696 32.1712C1.73124 31.3455 2.34144 30.6706 3.13333 30.2949L4.925 29.4482L7.75833 35.4182Z" stroke="#96B300" stroke-width="1.5" stroke-linecap="round" stroke-linejoin="round"/>
<path id="Vector_3" d="M7.75834 35.4183C11.2621 33.7603 15.1783 33.1763 19.0133 33.74L20.2 33.915L13.9833 20.7783L13.3667 21.8083C11.3703 25.1314 8.43551 27.7896 4.93167 29.4483L7.75834 35.4183Z" stroke="#96B300" stroke-width="1.5" stroke-linecap="round" stroke-linejoin="round"/>
<path id="Vector_4" d="M7.75833 35.4185C8.12748 36.2006 8.65193 36.8995 9.29977 37.4726C9.9476 38.0456 10.7053 38.4809 11.5267 38.7518" stroke="#96B300" stroke-width="1.5" stroke-linecap="round" stroke-linejoin="round"/>
<path id="Vector_5" d="M20.4167 22.02H22.9167C23.3587 22.02 23.7826 22.1956 24.0952 22.5082C24.4077 22.8207 24.5833 23.2446 24.5833 23.6867V27.0833L30.4167 22.0833L34.135 22.02C35.3591 22.0196 36.533 21.533 37.3984 20.6672C38.2638 19.8015 38.75 18.6275 38.75 17.4033V5.865C38.75 4.64103 38.2638 3.46718 37.3983 2.6017C36.5328 1.73622 35.359 1.25 34.135 1.25H13.365C12.141 1.25 10.9672 1.73622 10.1017 2.6017C9.23623 3.46718 8.75 4.64103 8.75 5.865V17.4033C8.74896 18.164 8.93681 18.9131 9.29667 19.5833" stroke="#96B300" stroke-width="1.5" stroke-linecap="round" stroke-linejoin="round"/>
</g>
<defs>
<clipPath id="clip0_553_704">
<rect width="40" height="40" fill="white"/>
</clipPath>
</defs>
</svg>
