<svg width="40" height="40" viewBox="0 0 40 40" fill="none" xmlns="http://www.w3.org/2000/svg">
<g id="Job Choose Candidate" clip-path="url(#clip0_553_694)">
<path id="Vector" d="M38.3517 38.7499L38.5183 36.8799C38.6283 35.6694 38.2935 34.4603 37.5767 33.4787C36.8598 32.4971 35.8099 31.8102 34.6233 31.5466L28.5383 30.1949V20.6249C28.4699 19.8002 28.1016 19.0293 27.5029 18.458C26.9043 17.8867 26.117 17.5547 25.29 17.5249C24.4833 17.545 23.7168 17.8812 23.1557 18.461C22.5945 19.0409 22.2836 19.818 22.29 20.6249V35.9582L19.8333 34.1199C19.3414 33.7525 18.7335 33.5745 18.1211 33.6186C17.5086 33.6627 16.9325 33.9258 16.4982 34.3599C16.064 34.794 15.8005 35.37 15.7562 35.9824C15.7118 36.5948 15.8895 37.2028 16.2567 37.6949L17.0483 38.7499" stroke="#96B300" stroke-width="1.5" stroke-linecap="round" stroke-linejoin="round"/>
<path id="Vector_2" d="M20.4167 5.625C20.4167 6.78532 20.8776 7.89812 21.6981 8.71859C22.5185 9.53906 23.6313 10 24.7917 10C25.952 10 27.0648 9.53906 27.8852 8.71859C28.7057 7.89812 29.1667 6.78532 29.1667 5.625C29.1667 4.46468 28.7057 3.35188 27.8852 2.53141C27.0648 1.71094 25.952 1.25 24.7917 1.25C23.6313 1.25 22.5185 1.71094 21.6981 2.53141C20.8776 3.35188 20.4167 4.46468 20.4167 5.625Z" stroke="#96B300" stroke-width="1.5" stroke-linecap="round" stroke-linejoin="round"/>
<path id="Vector_3" d="M31.0417 15C30.4375 13.8672 29.5369 12.9199 28.436 12.2594C27.3351 11.5989 26.0755 11.25 24.7917 11.25C23.5078 11.25 22.2482 11.5989 21.1473 12.2594C20.0465 12.9199 19.1458 13.8672 18.5417 15" stroke="#96B300" stroke-width="1.5" stroke-linecap="round" stroke-linejoin="round"/>
<path id="Vector_4" d="M2.91666 20.625C2.91666 21.7853 3.37759 22.8981 4.19806 23.7186C5.01854 24.5391 6.13133 25 7.29166 25C8.45198 25 9.56478 24.5391 10.3852 23.7186C11.2057 22.8981 11.6667 21.7853 11.6667 20.625C11.6667 19.4647 11.2057 18.3519 10.3852 17.5314C9.56478 16.7109 8.45198 16.25 7.29166 16.25C6.13133 16.25 5.01854 16.7109 4.19806 17.5314C3.37759 18.3519 2.91666 19.4647 2.91666 20.625Z" stroke="#96B300" stroke-width="1.5" stroke-linecap="round" stroke-linejoin="round"/>
<path id="Vector_5" d="M13.5417 30C12.9375 28.8672 12.0369 27.9199 10.936 27.2594C9.83514 26.5989 8.57547 26.25 7.29166 26.25C6.00785 26.25 4.74817 26.5989 3.64731 27.2594C2.54645 27.9199 1.6458 28.8672 1.04166 30" stroke="#96B300" stroke-width="1.5" stroke-linecap="round" stroke-linejoin="round"/>
<path id="Vector_6" d="M16.0417 7.5H13.5417" stroke="#96B300" stroke-width="1.5" stroke-linecap="round" stroke-linejoin="round"/>
<path id="Vector_7" d="M16.0417 2.5L13.5417 1.25" stroke="#96B300" stroke-width="1.5" stroke-linecap="round" stroke-linejoin="round"/>
<path id="Vector_8" d="M33.5417 7.5H36.0417" stroke="#96B300" stroke-width="1.5" stroke-linecap="round" stroke-linejoin="round"/>
<path id="Vector_9" d="M33.5417 2.5L36.0417 1.25" stroke="#96B300" stroke-width="1.5" stroke-linecap="round" stroke-linejoin="round"/>
</g>
<defs>
<clipPath id="clip0_553_694">
<rect width="40" height="40" fill="white"/>
</clipPath>
</defs>
</svg>
