<svg width="40" height="40" viewBox="0 0 40 40" fill="none" xmlns="http://www.w3.org/2000/svg">
<g id="Job Responsibility Bag Thumbs Up" clip-path="url(#clip0_553_710)">
<path id="Vector" d="M27.0417 27.0833H35.375C36.2591 27.0833 37.1069 26.7321 37.732 26.107C38.3571 25.4819 38.7083 24.6341 38.7083 23.75V9.58333C38.7083 8.69928 38.3571 7.85143 37.732 7.22631C37.1069 6.60119 36.2591 6.25 35.375 6.25H12.875C11.991 6.25 11.1431 6.60119 10.518 7.22631C9.89286 7.85143 9.54167 8.69928 9.54167 9.58333V14.5833" stroke="#96B300" stroke-width="1.5" stroke-linecap="round" stroke-linejoin="round"/>
<path id="Vector_2" d="M38.7083 14.5835H17.875" stroke="#96B300" stroke-width="1.5" stroke-linecap="round" stroke-linejoin="round"/>
<path id="Vector_3" d="M24.5417 14.5835V17.9168" stroke="#96B300" stroke-width="1.5" stroke-linecap="round" stroke-linejoin="round"/>
<path id="Vector_4" d="M19.5417 6.25H29.5417L28.94 2.64333C28.8753 2.25416 28.6747 1.90056 28.3737 1.64543C28.0728 1.3903 27.6912 1.25018 27.2967 1.25H21.7867C21.3922 1.25018 21.0105 1.3903 20.7096 1.64543C20.4087 1.90056 20.208 2.25416 20.1433 2.64333L19.5417 6.25Z" stroke="#96B300" stroke-width="1.5" stroke-linecap="round" stroke-linejoin="round"/>
<path id="Vector_5" d="M4.95833 37.3335C5.47054 37.3403 5.97974 37.4131 6.47333 37.5501L10 38.5268C10.5215 38.6719 11.0603 38.7453 11.6017 38.7451H16.3567C17.7848 38.7638 19.1692 38.2525 20.2423 37.3099C21.3154 36.3673 22.001 35.0604 22.1667 33.6418L22.4583 28.8285C22.4988 27.8337 22.1903 26.8561 21.5861 26.0648C20.982 25.2735 20.1203 24.7182 19.15 24.4951L17.735 24.1935C17.4233 24.122 17.1448 23.9476 16.9443 23.6984C16.7439 23.4493 16.6331 23.1399 16.63 22.8201V19.6201C16.6143 19.0504 16.3769 18.5093 15.9684 18.1119C15.5599 17.7145 15.0124 17.4922 14.4425 17.4922C13.8726 17.4922 13.3251 17.7145 12.9166 18.1119C12.5081 18.5093 12.2707 19.0504 12.255 19.6201V21.0868C12.226 22.9932 11.4411 24.81 10.0727 26.1377C8.70439 27.4654 6.86473 28.1953 4.95833 28.1668V37.3335Z" stroke="#96B300" stroke-width="1.5" stroke-linecap="round" stroke-linejoin="round"/>
<path id="Vector_6" d="M1.29167 26.25H4.95834V38.75H1.29167" stroke="#96B300" stroke-width="1.5" stroke-linecap="round" stroke-linejoin="round"/>
</g>
<defs>
<clipPath id="clip0_553_710">
<rect width="40" height="40" fill="white"/>
</clipPath>
</defs>
</svg>
