<svg width="40" height="40" viewBox="0 0 40 40" fill="none" xmlns="http://www.w3.org/2000/svg">
<g id="ph:read-cv-logo-thin">
<path id="Vector" d="M32.8266 6.74846L12.475 3.15471C12.2325 3.11175 11.9838 3.11701 11.7433 3.17017C11.5028 3.22334 11.2751 3.32337 11.0733 3.46455C10.8715 3.60574 10.6994 3.78531 10.567 3.99301C10.4346 4.2007 10.3444 4.43246 10.3016 4.67502L5.65314 31.0813C5.56684 31.5709 5.67852 32.0747 5.96361 32.482C6.24871 32.8893 6.68388 33.1667 7.17345 33.2531L27.5266 36.8469C27.6353 36.8668 27.7457 36.8768 27.8563 36.8766C28.2964 36.8755 28.7222 36.7197 29.059 36.4363C29.3958 36.1529 29.6222 35.7601 29.6985 35.3266L34.3469 8.92033C34.4332 8.43073 34.3215 7.9269 34.0364 7.51962C33.7513 7.11234 33.3161 6.83496 32.8266 6.74846ZM33.1156 8.70315L28.4672 35.1094C28.4386 35.2727 28.3463 35.4179 28.2107 35.5131C28.075 35.6084 27.907 35.6458 27.7438 35.6172L7.39064 32.0235C7.22765 31.9945 7.08281 31.9021 6.9879 31.7664C6.89299 31.6308 6.85576 31.4631 6.88439 31.3L11.5328 4.89377C11.5614 4.7305 11.6537 4.58527 11.7894 4.49004C11.925 4.39481 12.093 4.35737 12.2563 4.38596L32.6094 7.97971C32.7724 8.00867 32.9172 8.1011 33.0121 8.23673C33.107 8.37236 33.1443 8.5401 33.1156 8.70315ZM28.7719 11.7453C28.7462 11.8896 28.6707 12.0203 28.5584 12.1146C28.4462 12.2088 28.3044 12.2607 28.1578 12.261C28.1212 12.2609 28.0846 12.2578 28.0484 12.2516L15.0797 9.96096C14.9164 9.93216 14.7713 9.83968 14.6762 9.70386C14.5811 9.56804 14.5439 9.40001 14.5727 9.23674C14.6015 9.07347 14.694 8.92832 14.8298 8.83323C14.9656 8.73815 15.1336 8.70091 15.2969 8.72971L28.2656 11.0203C28.3465 11.0347 28.4237 11.0648 28.493 11.109C28.5622 11.1532 28.622 11.2106 28.669 11.2779C28.716 11.3453 28.7493 11.4212 28.767 11.5014C28.7846 11.5816 28.7863 11.6645 28.7719 11.7453ZM27.9063 16.6688C27.8809 16.8136 27.8053 16.9449 27.6927 17.0395C27.5801 17.1341 27.4377 17.186 27.2906 17.186C27.2539 17.1861 27.2172 17.1825 27.1813 17.175L14.2188 14.886C14.1379 14.8717 14.0607 14.8417 13.9914 14.7975C13.9222 14.7534 13.8623 14.6961 13.8153 14.6289C13.7682 14.5616 13.7348 14.4857 13.717 14.4056C13.6993 14.3254 13.6975 14.2426 13.7117 14.1617C13.726 14.0809 13.756 14.0037 13.8001 13.9344C13.8443 13.8652 13.9016 13.8053 13.9688 13.7582C14.0361 13.7112 14.1119 13.6778 14.1921 13.66C14.2722 13.6423 14.3551 13.6404 14.4359 13.6547L27.4047 15.9453C27.5668 15.9754 27.7105 16.0683 27.8045 16.2038C27.8984 16.3393 27.935 16.5064 27.9063 16.6688ZM20.5625 20.4485C20.5368 20.593 20.461 20.7239 20.3485 20.8182C20.2359 20.9125 20.0937 20.9641 19.9469 20.9641C19.9102 20.964 19.8736 20.9609 19.8375 20.9547L13.3547 19.8094C13.271 19.7985 13.1903 19.7707 13.1176 19.7278C13.0448 19.6848 12.9816 19.6276 12.9316 19.5595C12.8816 19.4914 12.846 19.4139 12.8268 19.3316C12.8076 19.2494 12.8053 19.1641 12.82 19.0809C12.8347 18.9978 12.8661 18.9184 12.9123 18.8477C12.9585 18.777 13.0185 18.7164 13.0888 18.6696C13.1591 18.6227 13.2381 18.5906 13.3211 18.5752C13.4042 18.5597 13.4895 18.5613 13.5719 18.5797L20.0547 19.7235C20.2171 19.7535 20.3611 19.8466 20.4551 19.9825C20.5491 20.1183 20.5854 20.2859 20.5563 20.4485H20.5625Z" fill="#96B300"/>
</g>
</svg>
